<?xml version="1.0" encoding="UTF-8"?>
<svg id="Layer_1" data-name="Layer 1" xmlns="http://www.w3.org/2000/svg" xmlns:xlink="http://www.w3.org/1999/xlink" viewBox="0 0 1080 1080">
  <defs>
    <style>
      .cls-1 {
        fill: none;
      }

      .cls-2 {
        clip-path: url(#clippath);
      }
    </style>
    <clipPath id="clippath">
      <path class="cls-1" d="M484.25,745.06c-19-14.97-47.87-3.69-49.67,22.56-2.79,40.7,9.12,80.43,23.98,117.93,10.54,26.6,8.08,16.27,13.29,32.28,3.17,9.76.63,20.77-5.3,23.31-12.2,5.23-28.99-11.22-34.88-22.93-52.05-103.46-64.86-113.32-73.89-235.3-2.15-29.05-1.07-67.29-1.34-96.61-.15-16.17.24-32.49-1.59-48.45-1.4-12.17-5.09-25.73-18.56-26.92-13.13-1.16-27.36,1.15-33.56,16.32-5.87,14.36-10.43,30.35-11.69,46.03-7.43,92.31,19.87,234.25,86.5,354.72,19.98,36.13,20.71,57.35,13.95,64.7-12.8,13.92-39.75-24.19-47.55-37.33-49.42-83.27-66.48-128.68-86.69-191.69-23.43-73.04-32.56-150.4-41.8-227.07-15.53-128.93,25.53-192.45-7.9-253.49-12.46-22.75-26.36-38.26-52.54-39.4-28.78-1.26-55.23,14.35-63.29,51.35-3.05,14.01-4.17,29.06-3.66,43.52,3.9,110.12,18.98,181.77,39,289.24,7.99,42.88,21.54,84.72,35.51,125.79,38.2,112.28,71.99,180.65,135.21,261.77,9.22,11.84,31.01,49.93,18.81,59.61-13.19,10.47-26.76-.33-37.57-14.23-31.64-40.7-86.69-114.24-109.88-161.63-37.48-76.6-67.91-157.1-90.21-240.82-22.43-84.2-48.47-167.71-52.76-239.94-8.02-50.7-14.18-84.86-18.7-119.29C.35,244.73-4.52,190.13-1.69,135.04.3,96.48,8.67,60.08,28.96,28.54c5.86-9.12,13.63-17.43,21.99-23.49,12.79-9.27,27.33-10.65,40.42-.44,9.95,7.76,19.85,16.41,27.71,26.7,42.89,56.25,78.42,118.65,114.4,180.6,43.84,75.47,88.95,150.11,129.98,227.53,30.18,56.96,59.71,114.33,91.62,170.08,20.98,36.65,38.14,77.04,69.31,105.99,3.92,3.64,8.17,7.29,13.37,8.52,10.01,2.38,19.64-4.8,26.93-12.09,15.9-15.88,27.11-33.5,36.69-53.45,11.04-22.99,26.02-44.75,38.6-66.97,25.49-45.05,50.09-90.63,72.61-137.25,23.11-47.83,49.15-93.9,75.08-139.89,38.65-68.54,71.09-140.85,103.7-213.12,10.66-23.62,22.41-46.6,33.74-69.83,2-4.09,4.3-8,6.63-11.86,20.6-34.25,53.16-31.52,76.15-10.68,28.83,26.13,50.1,58.69,58.91,100.31,9.92,46.84,14.69,93.74,10.52,141.95-3.42,39.56-3.31,79.52-5.53,119.24-1.04,18.7-3.88,37.25-6.14,57.99-.71,35.87-10.56,71.6-20.5,107.4-5.77,20.8-9.33,42.39-14.89,63.28-8.54,32.08-16.97,64.28-27.16,95.71-36.46,112.56-107.91,262.07-166.44,361.98-4.42,7.55-10.07,15.38-16.87,19.68-10.79,6.83-20.23-.63-17.71-14.19,2.64-14.24,7.19-28.51,13.33-41.27,10.25-21.28,73.76-96.36,133.06-314.9,8.5-31.31,27.62-98.3,32.19-130.45,13.25-93.29,26.16-110.38,24.52-205.51-.27-15.62.36-31.36-1.2-46.83-3.51-34.62-21.44-58.18-48.72-66.15-31.71-9.27-62.67,1.56-79.87,29.22-19.52,31.4-23.17,66.8-14.15,103.05,19.75,79.39,23.99,116.2,4.23,220.11-17.4,91.47-45.74,169.41-69.9,252.03-17.77,60.76-24.97,71.54-40.22,110.51-5.27,13.46-19.04,42.74-30.97,33.69-10.34-7.84-7-35.14,8.62-75.84,38.96-101.56,53.98-209.71,58.5-339.6.69-19.8.51-51.52-9.04-68.89-9.19-16.73-17.18-21.6-32.05-18.87-14.7,2.7-25.3,15.49-27.68,36.28-1.31,11.46-1.71,23.73.46,34.94,11.71,60.58,13.25,114.68,1.67,173.53-13.55,68.89-44.6,119.24-62.12,166.02-8.56,22.86-22.19,26.94-28.61,24.09-8.35-3.7-6.78-22.96,2.58-52.84,11.73-37.45,28.29-68.39,17.1-123.15-5.8-28.38-30.32-36.65-50.51-18.56-15.39,13.79-27.48,31.55-41.5,46.71-2.43,2.63-4.94,5.32-8.14,6.92-2.35,1.18-4.97,1.7-7.56,2.12-6.59,1.06-13.78,1.39-19.51-2.06-3.08-1.85-5.46-4.65-7.7-7.45-11.73-14.63-19.63-32.23-34.62-44.03Z"/>
    </clipPath>
  </defs>
  <g class="cls-2">
    <g>
      <rect y="1060" width="1080" height="10"/>
      <rect y="1040" width="1080" height="10"/>
      <rect y="1020" width="1080" height="10"/>
      <rect y="1000" width="1080" height="10"/>
      <rect y="980" width="1080" height="10"/>
      <rect y="960" width="1080" height="10"/>
      <rect y="940" width="1080" height="10"/>
      <rect y="920" width="1080" height="10"/>
      <rect y="900" width="1080" height="10"/>
      <rect y="880" width="1080" height="10"/>
      <rect y="860" width="1080" height="10"/>
      <rect y="840" width="1080" height="10"/>
      <rect y="820" width="1080" height="10"/>
      <rect y="800" width="1080" height="10"/>
      <rect y="780" width="1080" height="10"/>
      <rect y="760" width="1080" height="10"/>
      <rect y="740" width="1080" height="10"/>
      <rect y="720" width="1080" height="10"/>
      <rect y="700" width="1080" height="10"/>
      <rect y="680" width="1080" height="10"/>
      <rect y="660" width="1080" height="10"/>
      <rect y="640" width="1080" height="10"/>
      <rect y="620" width="1080" height="10"/>
      <rect y="600" width="1080" height="10"/>
      <rect y="580" width="1080" height="10"/>
      <rect y="560" width="1080" height="10"/>
      <rect y="540" width="1080" height="10"/>
      <rect y="520" width="1080" height="10"/>
      <rect y="500" width="1080" height="10"/>
      <rect y="480" width="1080" height="10"/>
      <rect y="460" width="1080" height="10"/>
      <rect y="440" width="1080" height="10"/>
      <rect y="420" width="1080" height="10"/>
      <rect y="400" width="1080" height="10"/>
      <rect y="380" width="1080" height="10"/>
      <rect y="360" width="1080" height="10"/>
      <rect y="340" width="1080" height="10"/>
      <rect y="320" width="1080" height="10"/>
      <rect y="300" width="1080" height="10"/>
      <rect y="280" width="1080" height="10"/>
      <rect y="260" width="1080" height="10"/>
      <rect y="240" width="1080" height="10"/>
      <rect y="220" width="1080" height="10"/>
      <rect y="200" width="1080" height="10"/>
      <rect y="180" width="1080" height="10"/>
      <rect y="160" width="1080" height="10"/>
      <rect y="140" width="1080" height="10"/>
      <rect y="120" width="1080" height="10"/>
      <rect y="100" width="1080" height="10"/>
      <rect y="80" width="1080" height="10"/>
      <rect y="60" width="1080" height="10"/>
      <rect y="40" width="1080" height="10"/>
      <rect y="20" width="1080" height="10"/>
      <rect width="1080" height="10"/>
    </g>
  </g>
</svg>