<?xml version="1.0" encoding="UTF-8"?>
<svg id="Layer_1" data-name="Layer 1" xmlns="http://www.w3.org/2000/svg" xmlns:xlink="http://www.w3.org/1999/xlink" viewBox="0 0 1080 1080">
  <defs>
    <style>
      .cls-1 {
        fill: none;
      }

      .cls-2 {
        clip-path: url(#clippath);
      }
    </style>
    <clipPath id="clippath">
      <path class="cls-1" d="M872.07,678.26c-7.2-9.89-14.67-19.61-22.49-29.12-4.87-5.92-10.02-11.93-12.41-19.17s-1.22-16.15,4.8-20.27c4.48-3.07,10.44-2.85,15.97-2.53,29.46,1.73,58.64,8.17,88,9.49,3.8.17,34.52.77,38.48.23,17.08-2.31,17.92-14.17,11.99-22.64-9.96-14.23-46.58-26.77-58.98-37.98-22.23-20.11-57.35-21.4-69.05-48.5-5.4-12.52,15.46-33.66,25.76-41.63,17.45-13.49,39.17-20.04,59.82-28.01,29.47-11.38,57.48-26.02,84.96-41.45,10.76-6.04,21.74-12.45,29.17-22.34,13.81-18.38,12.07-43.19,11.53-65.56-.62-25.28-.93-100.92-1.62-114.75-1.45-28.84-35.09-51.9-62.95-43.19-19.51,6.1-30.42,27.38-39.01,47.61-47.75,112.37-87.28,177.27-96.18,192.3-9.92,16.75-23.3,30.61-37.47,43.05-13.1,11.5-32.58,28.62-49.58,14.29-17.49-14.74-19.59-51.78-22.22-73.94-3.18-26.77-6.32-53.62-6.62-80.49-.35-32.09,1.85-173.62-32.68-242.93-12.03-24.16-30.51-50.27-48.3-50.27-64.06,0-131.98-13.09-112.4,56.38,21.01,74.56,51.71,105.95,83.13,175.93,19.7,43.88,45.29,88.37,58.87,135.37,2.23,7.73,23.35,52.62,11.47,63.22-14.23,12.7-18.28-20.65-179.98-122.75-31.87-20.12-233.16-176.85-272.72-204.63-32.86-23.09-57.78-15.8-93.22-16.26-47.45-3.05-86.4-15.85-125.63,4.54C11.94,113.35-.02,128.54,0,178c.02,57.53,41.86,92.51,95.1,108.42,126.3,37.75,116.01,35.52,176.8,61.96,24.11,10.49,48.02,21.76,72.55,30.77,47.74,17.53,96.88,30.72,143.56,51.25,55.02,24.19,110.42,46.44,167.07,64.46,16.56,5.27,40.92,13.48,53.75,27.66,18.68,20.64-5.08,47.84-32.8,61.41-31.3,15.32-59.92,24.62-91.46,38.83-109.01,49.13,22.62-20.08-321.7,173.1-65.35,36.66-98.28,99.59-159.62,142.69-13.28,9.33-25.93,20.64-36.32,33.5-25.25,31.27-17.25,68.35,17.91,87.97,25.17,14.04,46.07,19.6,73.84,19.6,30.7,0,55.37.11,80.26.11,108.63,0,160.91-70.96,168.54-79.61,47.27-53.69,94.11-107.84,142.25-160.59,25.37-27.81,42.2-62.4,67.37-89.51,31.75-34.2,62.63-68.8,96.61-100.26,17.18-15.91,34.97-31.5,48.25-51.7,2.83-4.3,5.49-8.92,6.55-14.22,1.82-9.07-1.26-18.61-4.28-27.48-4.29-12.61-27.28-57.83-17.32-69.42,2.83-3.3,8.1-1.88,11.14,1.45,3.04,3.33,4.6,7.97,6.65,12.16,7.19,14.67,21.86,24.38,36.32,24.05,11.42-.27,20.18-1.24,31.73.84,17.24,29.42-27.63,32.96-38.6,45.27-17.22,19.31-1.67,55.37,5.42,77.96,17.91,57.07,65.62,247.33,71.83,306.36,3.06,29.04,10.36,107.26,44.47,116.52,29.27,7.94,52.28,7.61,82.23,7.81,9.95.07,28.11-11.74,34.79-33.34,7.41-23.97-6.38-45.17-14.55-58.18-37.23-59.29-105.13-253.01-146.27-309.56Z"/>
    </clipPath>
  </defs>
  <g class="cls-2">
    <g>
      <rect x="0" y="1060" width="1080" height="10"/>
      <rect x="0" y="1040" width="1080" height="10"/>
      <rect x="0" y="1020" width="1080" height="10"/>
      <rect x="0" y="1000" width="1080" height="10"/>
      <rect x="0" y="980" width="1080" height="10"/>
      <rect x="0" y="960" width="1080" height="10"/>
      <rect x="0" y="940" width="1080" height="10"/>
      <rect x="0" y="920" width="1080" height="10"/>
      <rect x="0" y="900" width="1080" height="10"/>
      <rect x="0" y="880" width="1080" height="10"/>
      <rect x="0" y="860" width="1080" height="10"/>
      <rect x="0" y="840" width="1080" height="10"/>
      <rect x="0" y="820" width="1080" height="10"/>
      <rect x="0" y="800" width="1080" height="10"/>
      <rect x="0" y="780" width="1080" height="10"/>
      <rect x="0" y="760" width="1080" height="10"/>
      <rect x="0" y="740" width="1080" height="10"/>
      <rect x="0" y="720" width="1080" height="10"/>
      <rect x="0" y="700" width="1080" height="10"/>
      <rect x="0" y="680" width="1080" height="10"/>
      <rect x="0" y="660" width="1080" height="10"/>
      <rect x="0" y="640" width="1080" height="10"/>
      <rect x="0" y="620" width="1080" height="10"/>
      <rect x="0" y="600" width="1080" height="10"/>
      <rect x="0" y="580" width="1080" height="10"/>
      <rect x="0" y="560" width="1080" height="10"/>
      <rect x="0" y="540" width="1080" height="10"/>
      <rect x="0" y="520" width="1080" height="10"/>
      <rect x="0" y="500" width="1080" height="10"/>
      <rect x="0" y="480" width="1080" height="10"/>
      <rect x="0" y="460" width="1080" height="10"/>
      <rect x="0" y="440" width="1080" height="10"/>
      <rect x="0" y="420" width="1080" height="10"/>
      <rect x="0" y="400" width="1080" height="10"/>
      <rect x="0" y="380" width="1080" height="10"/>
      <rect x="0" y="360" width="1080" height="10"/>
      <rect x="0" y="340" width="1080" height="10"/>
      <rect x="0" y="320" width="1080" height="10"/>
      <rect x="0" y="300" width="1080" height="10"/>
      <rect x="0" y="280" width="1080" height="10"/>
      <rect x="0" y="260" width="1080" height="10"/>
      <rect x="0" y="240" width="1080" height="10"/>
      <rect x="0" y="220" width="1080" height="10"/>
      <rect x="0" y="200" width="1080" height="10"/>
      <rect x="0" y="180" width="1080" height="10"/>
      <rect x="0" y="160" width="1080" height="10"/>
      <rect x="0" y="140" width="1080" height="10"/>
      <rect x="0" y="120" width="1080" height="10"/>
      <rect x="0" y="100" width="1080" height="10"/>
      <rect x="0" y="80" width="1080" height="10"/>
      <rect x="0" y="60" width="1080" height="10"/>
      <rect x="0" y="40" width="1080" height="10"/>
      <rect x="0" y="20" width="1080" height="10"/>
      <rect x="0" width="1080" height="10"/>
    </g>
  </g>
</svg>