<?xml version="1.0" encoding="UTF-8"?>
<svg id="Layer_1" data-name="Layer 1" xmlns="http://www.w3.org/2000/svg" xmlns:xlink="http://www.w3.org/1999/xlink" viewBox="0 0 1080 1080">
  <defs>
    <style>
      .cls-1 {
        fill: none;
      }

      .cls-2 {
        clip-path: url(#clippath);
      }
    </style>
    <clipPath id="clippath">
      <path class="cls-1" d="M599.46,1080.98c-16.77.31-34.99-5.13-50.39-16.5-31.86-23.52-67.4-39.41-103.9-54.1-39.89-16.06-71.54-43.04-89.91-81.65-20.11-42.24-47.11-80.13-70.56-120.24-20.48-35.03-47.94-44.99-97.74-29.62-7.82,2.41-14.77,7.48-22.3,10.93-28.38,13.01-67.95,5.73-92.28-17.86-24.08-23.35-29.08-51.53-18.15-82.62,2.72-7.73,6.97-14.92,10.44-22.4,9.76-21.05,19.2-42.26,29.31-63.14,7.16-14.81,14.19-29.84,23.08-43.63,15.23-23.63,15.35-46.77-.6-69.22-33.07-46.52-55.35-97.72-70.32-152.4-2.96-10.8-6.58-21.61-11.43-31.69C10.09,255.7,3.37,200.87-.09,145.34c-1.6-25.69,2.23-50.71,9.78-75.34,9.79-31.94,31.78-51.93,62.2-63.77,19.32-7.52,38.72-7.49,56.63,3.61,14.03,8.7,27.2,18.78,40.67,28.36,20.19,14.36,39.23,30.69,60.66,42.89,70.76,40.29,132.47,90.97,186.68,151.34,22.03,24.53,46.63,46.8,70.42,69.73,5.9,5.69,13.11,10.08,19.89,14.83,27.82,19.51,57.57,22.5,87.63,6.86,44.09-22.95,88.19-46.06,130.77-71.59,19.73-11.83,36.14-29.26,53.6-44.66,18.04-15.92,34.47-33.82,53.54-48.36,19-14.48,39.39-27.99,60.97-38.17,51.98-24.53,103.12-49.93,147.04-87.65,9.12-7.83,19.63-15.38,32.68-8.81,8.02,4.04,8.62,20.04,1.62,35.42-9.2,20.22-24.07,36.16-40.93,50.29-32.39,27.15-66.44,51.99-105.02,69.93-22.88,10.64-41.76,26.18-60.71,42.49-33.6,28.93-68.01,57.12-103.84,83.25-44.98,32.8-91.69,63.28-137.75,94.62-19.91,13.54-24.96,27.09-15.62,50.15,8.43,20.82,18.06,41.22,28.16,61.31,25.1,49.94,41.24,103.03,54.35,156.87,7.41,30.4,10.2,61.96,14.13,93.12,1.2,9.49.98,19.83-1.56,28.98-10.95,39.46-11.92,79.86-12.98,120.24-.68,26.08-.53,52.19-.06,78.28,1,56.2-33.93,91.66-93.41,91.42ZM562.87,642.89c-1.25-8.52-1.5-13.05-2.61-17.37-8.4-32.58-16.93-65.13-25.54-97.65-.76-2.86-2.23-5.55-3.53-8.25-5.43-11.19-14.43-16.86-26.98-17.01-14.02-.17-27.2,2.7-37.63,12.52-8.17,7.7-16.08,15.81-23.1,24.53-16.18,20.08-34.88,37.11-56.9,50.76-11.48,7.12-22.82,14.73-33.17,23.35-38.7,32.25-45.11,70.51-19.74,113.79,6.06,10.35,13.21,20.18,18.21,31,25.67,55.53,74.97,86.61,124.14,117.19,20.28,12.61,38.7,3.01,43.72-20.95,3.66-17.44,5.52-35.5,5.82-53.32.7-40.78,5.04-80.3,24.32-117.47,7.08-13.64,9.5-29.66,12.99-41.12ZM144.39,308.64s-.06,0-.09,0c0,13.47,0,26.94,0,40.41-.02,40.17,11.8,76.3,35.46,109.14,14.78,20.51,33.83,33.08,58.87,31.54,18.42-1.13,37.22-5.44,54.61-11.72,38.93-14.07,77.09-30.22,115.53-45.62,5.58-2.23,11.32-4.39,16.36-7.55,11.96-7.51,15.01-18.69,7.98-30.84-3.31-5.72-8.45-10.44-12.92-15.46-12.94-14.52-26.86-28.28-38.68-43.64-10.75-13.97-22.96-25.38-38.16-34.37-12.9-7.63-26.44-15.3-36.86-25.74-26.48-26.53-58.61-44.56-90.78-62.48-41.29-23.01-69.07-7.09-71.18,40.22-.83,18.67-.14,37.4-.14,56.11Z"/>
    </clipPath>
  </defs>
  <g class="cls-2">
    <g>
      <rect y="1060" width="1080" height="10"/>
      <rect y="1040" width="1080" height="10"/>
      <rect y="1020" width="1080" height="10"/>
      <rect y="1000" width="1080" height="10"/>
      <rect y="980" width="1080" height="10"/>
      <rect y="960" width="1080" height="10"/>
      <rect y="940" width="1080" height="10"/>
      <rect y="920" width="1080" height="10"/>
      <rect y="900" width="1080" height="10"/>
      <rect y="880" width="1080" height="10"/>
      <rect y="860" width="1080" height="10"/>
      <rect y="840" width="1080" height="10"/>
      <rect y="820" width="1080" height="10"/>
      <rect y="800" width="1080" height="10"/>
      <rect y="780" width="1080" height="10"/>
      <rect y="760" width="1080" height="10"/>
      <rect y="740" width="1080" height="10"/>
      <rect y="720" width="1080" height="10"/>
      <rect y="700" width="1080" height="10"/>
      <rect y="680" width="1080" height="10"/>
      <rect y="660" width="1080" height="10"/>
      <rect y="640" width="1080" height="10"/>
      <rect y="620" width="1080" height="10"/>
      <rect y="600" width="1080" height="10"/>
      <rect y="580" width="1080" height="10"/>
      <rect y="560" width="1080" height="10"/>
      <rect y="540" width="1080" height="10"/>
      <rect y="520" width="1080" height="10"/>
      <rect y="500" width="1080" height="10"/>
      <rect y="480" width="1080" height="10"/>
      <rect y="460" width="1080" height="10"/>
      <rect y="440" width="1080" height="10"/>
      <rect y="420" width="1080" height="10"/>
      <rect y="400" width="1080" height="10"/>
      <rect y="380" width="1080" height="10"/>
      <rect y="360" width="1080" height="10"/>
      <rect y="340" width="1080" height="10"/>
      <rect y="320" width="1080" height="10"/>
      <rect y="300" width="1080" height="10"/>
      <rect y="280" width="1080" height="10"/>
      <rect y="260" width="1080" height="10"/>
      <rect y="240" width="1080" height="10"/>
      <rect y="220" width="1080" height="10"/>
      <rect y="200" width="1080" height="10"/>
      <rect y="180" width="1080" height="10"/>
      <rect y="160" width="1080" height="10"/>
      <rect y="140" width="1080" height="10"/>
      <rect y="120" width="1080" height="10"/>
      <rect y="100" width="1080" height="10"/>
      <rect y="80" width="1080" height="10"/>
      <rect y="60" width="1080" height="10"/>
      <rect y="40" width="1080" height="10"/>
      <rect y="20" width="1080" height="10"/>
      <rect width="1080" height="10"/>
    </g>
  </g>
</svg>