<?xml version="1.0" encoding="UTF-8"?>
<svg id="Layer_1" xmlns="http://www.w3.org/2000/svg" viewBox="0 0 1080 1080" stroke="#5f00bf" fill="#999">
  <path d="M793.64,485.83c11.86,57.6-59.29,57.6-57.6,0,1.99-67.76-1.45-174.44-39.68-224.43-9.7-12.68-24.89-21.7-49.86-20.08-23.47,1.52-34.83,11.87-40.37,24.47-4.31,9.81-7.44,20.1-7.89,30.23-2.89,65.79-4.65,131.45,10.5,197.07,6.27,27.15,1.41,55.4-.29,83.11-2.73,44.56-7.81,89.08-10.19,133.64-.73,13.74,2.5,27.79,6.89,41.33,2.95,9.08,8.86,18.49,17.41,26.05,25.97,22.94,78.78,21.71,100.04-2.93,21.53-24.95,6.35-68.44,8.35-81.77,5.61-37.51,57.13-42.39,55.91,6.78-.57,22.67-12.38,48.52-12.25,71.17.06,10.81,2.47,22.05,7.81,32.3,9.61,18.48,30.12,24.55,60.91,20.26,40.39-5.63,47.56-2.89,55.57,21.56,1.64,5.01,3.08,10.09,3.54,15.18,3.77,41.37,24.16,72.75,61.73,106.63,17.4,15.69,84.95,59.27,101.37,75.34,7.43,7.27,13,15.68,16.09,24.05,1.47,3.97-2.86,10.78-8.22,13.12-5.05,2.2-16.11,1.69-22.34-.27-10.34-3.25-18.76-8.77-28.29-13.08-30.03-13.57-232.54-158.17-542.87-158.17-107.48,0-221.91,28.65-304.9,71.1-37.91,19.4-68.24,42.44-95.12,67.64-11,10.32-23.12,20.48-37.33,29.06-6.2,3.75-20.9,6.08-28.19,4.09-7.53-2.05-14.7-10.07-14.93-15.59-.35-8.42,3.04-17.65,9.07-25.25,11.42-14.39,24.6-28.38,39.29-41.6,22.78-20.5,47.28-40.27,71.32-60.23,45.58-37.83,89.6-80.43,102.5-126.86,20.73-74.59,28.5-149.53,28.61-225.01.03-19.7,3.62-39.43,6.52-59.09,1.06-7.21,3.9-14.46,7.62-21.35,4.95-9.15,11.81-18.5,29.95-19.35,18.45-.86,27.3,7.88,33.29,16.81,5.85,8.73,10.26,17.93,13.65,27.16,14.33,39.05,14.27,78.41,4.34,117.79-6.75,26.74-15.4,53.3-21.58,80.08-3.49,15.13-5.47,30.57-5.04,45.84.98,34.88,40.15,53.48,103.9,43.25,33.38-5.36,56.05-19.83,65.69-39.8,8.04-16.66,14.57-34.32,14.7-51.56.34-46.03-2.77-92.08-5.17-138.1-5.75-110.02,28.92-131.19,31.54-191.36,1.81-41.67,3.92-83.35,3.68-125.03-.06-11.37-8.06-48.14-46.67-47.07-34.83.96-41.11,29.76-41.31,49.28-.3,28.51,2.5,57.03,2.7,85.56.11,15.66-4.93,47.05-29.2,43.95-18.14-2.32-34.91-14.78-34.08-48.85,2.28-94.07-19.81-133.56-57.25-156.02-28.95-17.37-71.5-10.98-80.16,13.2-12.54,35.02,9.68,82.99,19.18,116.79,3.88,13.8,8.02,30.49-15,38.18-14.49,4.84-29.09-20.18-39.3-37.2-20.95-34.95-40.13-70.35-63.07-104.78-25.89-38.85-61.95-73.96-111.24-103.57-10.84-6.51-20.56-14.43-27.14-22.8-13.47-17.13-2.88-34.91,25.94-41.41,82.2-18.53,233.31,44.34,475.69,34.71C853.5,76.42,803.8,1.88,981.06,7.32c21.92.67,43.86,6.25,64.05,11.9,23.97,6.71,39.92,19.31,39.89,36.15-.03,18.09-18.63,29.74-44.17,36.44-17.32,4.55-35.79,7.62-54.12,10.44-46.6,7.18-73.73,25.67-81.62,54.34-4.74,17.24-7.01,34.82-8.46,52.31-3.13,37.99-4.71,76.02-7.69,114.01-1.85,23.63-11.59,29.14-22.87,30.49-10.39,1.25-17.37-15.15-18.5-30.24-1.21-16.07-.15-32.21-1.46-48.27-1.04-12.72-4.42-39.59-33.9-41.19-62.21-3.37-53.69,81.57-18.58,252.1Z"/>
</svg>