<?xml version="1.0" encoding="UTF-8"?>
<svg id="Layer_1" xmlns="http://www.w3.org/2000/svg" viewBox="0 0 1080 1080">
  <path d="M995.52,844.76c-56.24-1.87-97.76-21.03-131.06-56.49-36.5-38.87-71.14-79.52-106.91-119.1-7.37-8.15-15.61-15.78-24.49-22.17-7.62-5.48-18.26-6.65-24.51.52-5.21,5.97-9.04,16.09-8.23,23.8,1.13,10.7,5.68,21.81,11.37,31.11,34.56,56.46,70.1,112.23,118.7,157.94,13.45,12.65,27.26,25.16,38.99,39.36,20.03,24.22,19.75,40.91,1.14,66.35-4.8,6.56-10.95,12.09-15.85,18.58-12.48,16.52-24.77,33.19-36.78,50.06-5.15,7.24-8.86,15.54-14.16,22.64-13.26,17.8-29.5,23.97-50.48,16.65-17.97-6.27-34.98-15.39-52.33-23.44-33.43-15.51-66.36-32.24-100.32-46.45-34.36-14.38-67.71-10.73-98.29,12.13-13.63,10.19-27.12,20.71-41.58,29.56-37.19,22.76-77.28,40.47-121.17,32.06-51.17-9.79-99.6-28.79-131.69-74.42-17.29-24.59-39.63-38.57-69.08-43.31-25.4-4.09-50.49-10.37-75.54-16.42-50.66-12.24-72.58-50.05-59.59-100.97,6.89-27.01,22.58-48.51,41.33-67.71,70.32-72,150.38-131.43,235.37-184.22,12.44-7.73,26.39-13.19,40.06-18.64,18.3-7.3,34.08-17.66,45.37-34.17,21.99-32.17,50.86-55.3,86.49-70.6,12.74-5.47,24.27-14,35.99-21.7,47.96-31.56,63.84-78.9,58.56-133.33-5.26-54.2-17.33-107.13-40.4-157.21-17.7-38.42-42.45-71.3-69.77-102.77-6.2-7.14-12.23-15.24-15.53-23.99-5.4-14.27,1.85-25.04,16.7-27.51,14.43-2.4,27.23-.36,38.38,11.09,16.62,17.05,32.63,34.29,44.2,55.49,28.22,51.69,52.39,104.91,68.82,161.91,14.64,50.78,32.4,100.64,48.87,150.88,6.62,20.19,17.42,37.73,32.92,52.23,38.4,35.9,75.81,72.96,115.35,107.52,53.46,46.72,108.38,91.74,163.02,137.06,15.92,13.21,33.3,24.6,49.5,37.49,18.48,14.71,36.8,29.7,54.36,45.52,7.58,6.83,13.88,15.52,19.35,24.27,14.08,22.51,8,41.48-17.15,48.57-21.83,6.15-44.59,8.91-59.91,11.84ZM419.2,695.91c-.11-17.59-11.12-25.8-26.28-19.52-5.93,2.46-12.03,6.42-16.03,11.37-10.21,12.66-20.13,25.74-28.48,39.68-5.22,8.7-8.5,19.03-10.6,29.07-2.02,9.64-.54,19.64,9.06,25.69,8.44,5.32,22.67,4.03,30.5-4.84,19.35-21.93,31.56-48.2,41.42-75.61.72-2.01.33-4.43.41-5.84Z"/>
</svg>