<?xml version="1.0" encoding="UTF-8"?>
<svg id="Layer_1" xmlns="http://www.w3.org/2000/svg" viewBox="0 0 1080 1080">
  <path d="M830.52,365.53c18.79,0,37.6.44,56.37-.08,40.63-1.12,79.16,8.47,116.01,23.93,15.59,6.54,30.31,16.57,43.24,27.53,32.56,27.61,38.26,64.86,31.14,103.91-6.53,35.79-15.36,71.28-25.35,106.29-11,38.58-35.35,68.83-68.3,91.57-23.37,16.13-48.27,30.09-72.26,45.36-11.98,7.63-24.54,14.87-34.94,24.34-29.48,26.82-61.75,49.23-96.43,69.14-36.96,21.22-71.2,47.05-107.93,68.68-46.3,27.26-96.17,32.34-147.55,15.39-45.02-14.85-78.5-61.59-80-108.63-.94-29.35,5.45-57.58,10.5-86.11,1.94-10.93,3.94-22.12,3.6-33.12-.86-27.75-25.17-43.64-50.41-31.12-17.08,8.47-33.2,20.62-46.64,34.14-31.2,31.41-56.61,67.5-77.29,106.53-20.33,38.39-45.87,73.21-72.35,107.48-19.6,25.36-39.69,50.38-58.49,76.31-21.62,29.82-49.42,51.36-82.81,66.8-15.88,7.35-32.18,6.43-48.62,5.5-9.28-.53-14.87-7.15-17.59-15.26-2.09-6.25-3.04-13.05-3.4-19.67-.56-10.38.58-20.88-.35-31.22-5.14-57.28,19.55-104.3,52.68-147.87,46.21-60.76,99.33-115.31,156.65-165.92,7.81-6.89,15.54-14.2,21.68-22.49,3-4.05,4.85-12.68,2.52-15.82-2.51-3.39-10.92-4.57-16.04-3.48-7.07,1.51-13.89,5.45-20.09,9.45-11.96,7.71-23.36,16.24-35.08,24.32-10.2,7.03-21.43,10.55-34,9.4-12.38-1.14-15.76-4.28-15.46-16.89.13-5.79.96-12.16,3.58-17.2,32.27-62.15,70.51-119.59,132.75-156.81,19.91-11.91,41.26-21.48,61.11-33.48,23.67-14.3,46.93-29.39,69.48-45.37,25.03-17.73,36.3-43.07,35.36-73.27-.64-20.32,5.85-37.63,17.58-54.01,35.93-50.18,79.01-93.28,128.94-129.79,9.19-6.72,18.63-12.51,30.87-11.47,11.17.95,14.85,4.46,13.54,15.53-.59,5.02-2.56,10.04-4.74,14.67-3.17,6.72-7.39,12.96-10.62,19.66-4.52,9.37-8.88,18.84-12.65,28.52-3.11,7.99-3.5,17.04,4.14,22.16,7.44,4.98,16.09,2.34,23.01-3.18,5.23-4.17,10.99-8.27,14.73-13.62,33.61-48,80.02-82.14,126.79-116,62.78-45.45,132.54-78.76,201.38-113.68,24.65-12.5,50.59-18.48,78.38-16.07,15.84,1.37,19.4,5.17,19.73,20.77.3,14.4-6.48,26.17-15.22,36.3-11.17,12.94-22.95,25.83-36.42,36.28-55.04,42.68-111.86,82.72-175.54,112.39-19.65,9.16-38.3,20.51-56.96,31.6-22.2,13.19-40.11,31.26-55.41,51.72-5.31,7.1-9.87,15.05-13.17,23.24-8.01,19.85-1.93,36.09,18.2,43.53,13.81,5.1,29.01,7.95,43.77,8.78,24.72,1.4,49.58.38,74.39.39ZM357.77,537.55c-.01,44.12,28.48,65.17,63.66,54.51,23.45-7.11,43.18-20.58,61.53-36.1,30.88-26.12,59.28-54.96,83.12-87.3,16.63-22.56,29.39-48.13,42.13-73.23,11.97-23.6,3.15-43.62-30.3-46.72-27.76-2.58-54.13,2.1-77.42,17.66-52.95,35.38-97.04,79.48-128.84,134.56-7.62,13.2-10.99,28.8-13.88,36.64Z"/>
</svg>