<?xml version="1.0" encoding="UTF-8"?>
<svg id="Layer_1" xmlns="http://www.w3.org/2000/svg" viewBox="0 0 1080 1080">
  <path d="M781.48,376.52c-3.3,34.38,1.85,66.99,18.64,97.46,3.17,5.75,5.17,12.5,6.3,19.04,5.66,32.67,24.46,55.82,51.72,71.48,20.28,11.65,35.33,28.25,51.31,44.82,20.42,21.17,42.85,40.59,65.93,58.77,29.85,23.5,55.97,49.27,74.95,83.38,15.35,27.58,22.91,56.34,25.42,87.12,1.7,20.82,1.95,41.78,3.97,62.57,1.71,17.67-4.71,31.33-14.63,45.31-29.7,41.85-72.61,64.02-116.86,84.37-55.46,25.5-113.74,38.35-174.6,38.76-40.03.27-78.8-4.37-113.55-27.52-10.97-7.31-23.1-12.96-35.1-18.47-18.21-8.36-37.27-13.38-57.52-12.29-3.65.2-7.36.34-10.98-.03-43.13-4.4-81.72,7.84-119.76,28.49-29.49,16.01-62.03,26.29-93.59,38.12-7.05,2.64-15.87,2.53-23.43,1.15-17.26-3.14-34.35-7.45-51.33-12.01-31.8-8.53-63.7-16.81-95.14-26.58-39.18-12.17-72.84-32.72-100.24-65.26-31.18-37.03-52.67-78.7-68.58-124.14-5.4-15.42-5.84-30.3-1.31-45.99,10.81-37.48,23.85-74.44,45.66-106.37,30.85-45.18,62.02-90.52,105.93-124.57,33.77-26.19,66.68-53.54,99.62-80.81,18.46-15.29,32.45-34.06,41.29-57.01,11.03-28.65,19.16-57.75,23.56-88.38,2.48-17.29,9.75-34.26,17.04-50.35,15.95-35.24,33.98-69.49,49.8-104.78,10.85-24.21,14.23-50.09,9.4-76.72-3.46-19.07-14.15-30.05-32.89-34.28-33.93-7.67-63.15-.51-89.5,23.46-23.26,21.17-44.42,43.23-55.89,73.57-2.85,7.55-7.22,14.94-12.43,21.04-21.19,24.79-30.51,54.39-33.26,86.18-3.08,35.53-20.39,63.34-42.72,88.86-3.86,4.41-8.46,8.33-13.26,11.66-12.51,8.68-19.51,8.76-30.15,1.25-12.01-8.48-15.98-18.77-12.47-32.82.9-3.61,1.97-7.26,3.57-10.58,17.84-37,19.31-76.64,15.34-116.25-1.73-17.29-7.91-35.23-16.3-50.45-14.09-25.6-14.9-49.47.31-73.89,12.96-20.81,26.24-41.41,39.81-61.8,8.79-13.2,23.4-17.97,37.05-22.74,20.74-7.25,41.96-13.39,63.36-18.16,8.83-1.97,19.43-1.29,27.93,1.84,34.37,12.65,69.3,24.52,102.03,40.83,41.12,20.49,84.31,33.71,127.65,47.46,50.96,16.17,101.49,33.82,151.79,52.01,52.25,18.89,94.04,51.13,119.05,103.17,1.61,3.34,3.49,6.61,5.64,9.61,23.42,32.57,35.38,68.52,31.44,109.29-.36,3.7-.05,7.47-.05,11.21ZM736.03,587.21c-.46-.02-.92-.03-1.38-.05,0-31.37.6-62.75-.3-94.1-.35-12.47-2.87-25.23-6.7-37.08-1.64-5.05-8.66-10.11-14.17-11.6-7.98-2.16-14.23,3.81-16.79,11.28-3.11,9.08-5.72,18.63-6.62,28.16-3.2,34.12-4.89,68.4-8.48,102.48-4.07,38.61-10.25,76.82-24.95,113.16-10.03,24.8-21.88,49.47-27.35,75.42-12.58,59.69-9.09,120.25-1.66,180.44.96,7.76,4.68,15.96,9.31,22.28,10.23,13.97,31.36,14.04,41.97.32,4.87-6.3,8.72-14,10.98-21.69,3.78-12.81,6.71-26.02,8.58-39.26,4.99-35.34,7.36-70.7,29.35-101.67,12.1-17.04,12.33-39.33,9.1-60.68-2.23-14.72-5.09-29.62-4.89-44.4.55-41.02,2.56-82.01,3.99-123.02ZM438.36,839.53c-1.88-20.21-3.11-53.14-8.5-85.35-4.41-26.33-14.5-51.62-20.83-77.69-15.02-61.91-17.69-125.37-21.76-188.66-1.38-21.54-3.95-43.03-6.89-64.41-.87-6.34-4.13-14.59-12.27-12.95-4.6.92-8.84,6.77-11.95,11.32-2.38,3.48-3.46,8.34-3.88,12.7-1.74,17.8-4.05,35.63-4.24,53.47-.56,52.29-.26,104.59-.13,156.89.02,8.19,1.22,16.37,1.29,24.56.15,19.31.6,38.65-.25,57.93-1.61,36.59-4.94,73.11,12.67,107.47,4.32,8.42,6.6,18.28,8.12,27.77,3.29,20.6,4.98,41.46,8.29,62.05,2.59,16.13,5.91,32.23,10.33,47.92,2.59,9.19,10.21,14.33,20.09,14.64,10.41.33,16.51-6.28,19.7-15,3.02-8.28,5.29-17.23,5.79-26.01,1.79-31.29,2.69-62.63,4.42-106.66Z"/>
</svg>