<?xml version="1.0" encoding="UTF-8"?>
<svg id="Layer_1" xmlns="http://www.w3.org/2000/svg" viewBox="0 0 1080 1080">
  <path d="M927.58,1073.22c-67.91-3.91-135.8-8.19-203.73-11.6-41.52-2.08-83.11-2.64-124.65-4.2-30.96-1.16-61.9-4.04-92.84-3.92-28.66.11-57.43,2.06-85.94,5.16-54.1,5.89-107.93,14.66-162.11,19.36-36.1,3.13-72.62,1.66-108.95,1.47-14.61-.07-22.09-6.28-23.79-16.55-1.91-11.54,3.38-20.65,17.26-26.09,11.94-4.67,24.35-8.47,36.86-11.24,50.89-11.24,96.73-35.02,142.57-58.44,29.15-14.89,47.45-42.19,66.35-67.71,10.87-14.68,5.04-28.79-11.47-37.58-15.6-8.3-32.49-7.67-48.91-5.88-27.8,3.04-55.4,7.85-83.09,11.96-28.04,4.16-51.17,17.76-71.25,37.41-10.31,10.09-20.5,20.38-31.55,29.59-12.96,10.8-27.44,19.23-44.9,20.03-17.61.81-25.12-6.17-25.9-23.84-.23-5.31.54-10.65.59-15.98.17-21.02-8.86-32.3-29.65-36.68-6.65-1.4-13.48-1.91-20.2-2.98-21.41-3.41-29.29-23-15.15-40.07,5.57-6.73,13.69-12.31,21.77-15.77,32.93-14.09,67.25-23.69,103.2-24.58,64.27-1.59,128.57-1.97,192.84-3.49,16.55-.39,33.23-2.17,49.53-5.08,26.31-4.69,48.15-17.91,64.26-39.68,23.05-31.15,46.8-61.58,54.25-101.67,5.22-28.1.35-51.28-21.4-70.21-3.42-2.98-6.67-6.26-9.53-9.78-12.36-15.21-11.71-31.01,2.53-44.71,6.53-6.28,14.31-11.23,21.5-16.81,21.54-16.73,37.23-37.57,45.5-64,9.55-30.5,21.87-60.41,21.23-93.1-.28-14.37-1.49-29-4.62-42.98-5.56-24.85-19.65-44.33-41.75-57.33-9.14-5.38-18.66-10.12-27.83-15.44-41.73-24.22-47.93-84.66-11.47-116.7,9.01-7.92,19.57-14.55,30.34-19.84,26.88-13.2,44.64-33.31,51.76-62.82,1.42-5.88,3.83-11.6,6.42-17.08,4.18-8.86,10.79-14.61,21.22-14.35,10.24.26,17.27,5.74,21.12,14.72,3.28,7.64,5.5,15.78,7.7,23.83,2.41,8.81,3.94,17.87,6.45,26.64,5.97,20.84,17.86,36.81,38.22,45.47,1.39.59,2.65,1.5,4.03,2.1,17.24,7.41,32.94,16.57,36.23,37.41,3.84,24.36.8,47.44-16.57,66.29-8.72,9.47-18.52,17.99-28.26,26.45-15.35,13.33-22.57,29.76-22.21,50.31.54,30.47.45,60.96,0,91.43-.26,17.36,2.97,33.76,13.11,47.65,19.65,26.94,20.17,55.9,13.67,87.17-3.18,15.3-3.2,31.89-1.32,47.48,2.65,21.93,15.28,38.81,36.64,45.37,20.84,6.4,42.39,11.27,63.98,14.12,23.91,3.15,48.25,2.85,72.35,4.75,38.42,3.02,76.76,7.09,115.2,9.81,30.14,2.13,60.39,2.57,90.55,4.44,12,.75,24.13,2.43,35.78,5.37,11.94,3.01,17.21,11.31,16.32,21.51-.97,11.15-8.76,15.91-18.08,17.55-13.38,2.36-26.98,3.6-40.53,4.83-25.37,2.3-41.52,14.79-49.13,40.04-7.9,26.18-13.66,28.9-41.18,29.25-21.61.28-39.97-6.88-55.65-21.59-4.43-4.15-9.03-8.14-13.26-12.49-34.76-35.78-78.18-44.69-125.15-38.66-38.63,4.96-63.23,37.88-44.44,78.62,11.04,23.93,18.94,47.8,18.84,74.4-.06,17.03,10.54,29.77,20.2,42.54,6.87,9.08,15.08,17.34,20.72,27.13,17.27,29.97,43.7,47.91,74.63,60.45,46.5,18.85,94.65,31.93,143.88,41.04,19.33,3.58,38.81,6.42,58.15,9.95,7.42,1.36,14.85,3.19,21.92,5.77,8.45,3.08,14.47,9.39,13.75,18.87-.74,9.66-7.91,14.46-16.85,15.85-10.44,1.61-20.99,3.37-31.51,3.54-29.5.48-59.02.17-88.52.17-.04,1.21-.08,2.42-.12,3.63Z"/>
</svg>