<?xml version="1.0" encoding="UTF-8"?>
<svg id="Layer_1" xmlns="http://www.w3.org/2000/svg" viewBox="0 0 1080 1080">
  <path d="M72.64,787.57c2.65-18.27,4.28-36.77,8.14-54.78,9.27-43.26,9.95-86.31,3.59-130.16-5.41-37.36-9.3-74.89-20.54-111.1-2.17-6.99-5.01-13.92-8.69-20.2-1.43-2.45-6.37-4.59-9.1-4-2.69.58-6.17,4.58-6.55,7.45-.87,6.49-.83,13.34.25,19.81,2.79,16.76,6.56,33.35,9.53,50.08,3.91,22.11,4.06,44.22-2.03,66.02-1.37,4.92-3.22,9.97-6.02,14.16-5.15,7.72-12.81,8.14-17.97.53-3.59-5.3-6.5-11.91-7.17-18.21-1.32-12.42-2.59-25.28-.83-37.51,6.53-45.39,2.62-90.17-6.16-134.66-10.74-54.38-13.87-108.25,1.35-162.61,13.54-48.36,11.6-98.35,10.29-147.95-.98-37.05,5.69-72.18,21.66-105.49C46.05,11.27,48.05-1.09,58.31.08c12.57,1.44,9.79,14.5,10.45,23.57,1.07,14.76.75,29.63,2.17,44.34.84,8.71,2.02,18.32,6.29,25.62,21.03,35.93,44.71,69.88,82.77,89.95,14.43,7.61,30.08,14.49,46.46,9.87,11.62-3.28,22.63-10,32.81-16.85,7.18-4.83,12.58-12.38,18.65-18.83,30.31-32.18,67.76-42.72,110.56-36.91,4.34.59,8.67,1.72,12.83,3.11,29.7,9.9,40.34,28.96,29.16,58.4-9.69,25.49-22.25,49.94-34.63,74.3-14.38,28.3-30.6,55.66-44.69,84.1-7.18,14.48-11.43,30.43-17.01,45.72-13.5,36.96-35.32,68.25-65.08,93.58-30.93,26.34-64.07,23.74-92-6.01-20.07-21.37-27.44-46.65-23.7-75.59,3.74-29,2.36-57.59-6.7-85.65-9.66-29.92-25.8-56.35-42.89-82.33-.4-.61-.88-1.19-1.39-1.72-5.13-5.31-10.32-12.2-18.59-8.9-9.29,3.71-9.32,13.08-7.67,21.03,2.7,12.99,6.68,25.74,10.55,38.45,1.5,4.91,3.88,9.62,6.38,14.13,17.93,32.42,25.37,66.95,25.69,104.19.35,40.61,11.28,79,35.1,112.74,13.23,18.73,30.45,31.67,52.82,37.78,23.9,6.53,46.09,2.96,64.06-13.68,28.86-26.72,60.62-49.11,93.2-70.83,13.86-9.24,26.01-22,36.62-35.06,28.87-35.53,57.54-71.33,84.39-108.41,35.1-48.46,80.85-80.91,136.68-100.52,45.21-15.88,90.61-31.22,138.04-38.37,89.64-13.52,177.65-7.25,262.8,26.07,9.56,3.74,18.92,8.36,27.69,13.71,50.53,30.8,63.9,83.23,34.44,136.12-20.41,36.64-47.63,67.91-80.55,93.38-36.14,27.95-73.98,53.67-110.8,80.74-16.61,12.22-32.65,25.23-48.76,38.12-23.31,18.65-37.98,42.86-45.29,71.82-3.62,14.35-8.01,28.5-11.6,42.85-9.26,37.06-30.69,64.98-62.07,85.93-12.24,8.17-23.79,17.4-35.58,26.25-19.79,14.85-31.81,34.54-36.14,59-2.58,14.57-5.12,29.14-7.8,43.69-3.79,20.59-10.2,40.34-22.37,57.46-17.12,24.09-34,48.48-52.95,71.07-20.13,24-44.2,43.52-75.95,50.59-2.87.64-5.74,1.98-8.58,1.91-50.82-1.23-102.67-.47-147.48-28.93-26.57-16.88-50.37-38.4-74.4-59.04-15.63-13.42-29.54-28.89-44.01-43.66-12.72-12.99-27.14-22.48-45.45-25.43-17.62-2.84-31.25-12.45-41.77-26.69-23.8-32.22-40.21-67.14-40.38-108.68Z"/>
</svg>