<?xml version="1.0" encoding="UTF-8"?>
<svg id="Layer_1" xmlns="http://www.w3.org/2000/svg" viewBox="0 0 1080 1080">
  <path d="M2.21,386.36c0-49.07-.8-82.27.19-115.42,1.56-52.3,5.57-104.43,17.87-155.54,8.61-35.77,23.66-68.3,50.59-93.99,7.78-7.42,17.46-13.73,27.39-17.81,15.19-6.24,30.9-4.75,43.12,7.32,9.29,9.18,18.38,19.18,25.01,30.34,36.2,60.95,63.52,126.26,91.41,191.23,33.97,79.15,69.44,157.77,100.08,238.21,22.55,59.18,44.33,118.62,68.92,177,18.28,43.41,36.42,86.89,53.85,130.64,4.01,10.05,5.62,21.29,6.75,32.15.43,4.12-2.72,11.43-5.82,12.45-4.63,1.53-11.9.43-15.82-2.53-5.65-4.26-9.42-11.1-13.79-16.99-5.69-7.67-10.27-16.41-16.94-23.06-17.72-17.67-43.45-11.2-49.79,13.06-9.83,37.62-10.76,75.73-1.25,113.74,6.08,24.29,12.74,48.45,18.38,72.85,3.64,15.76,5.95,31.83,8.76,47.78.38,2.15.98,4.72.2,6.54-2.77,6.48-4.51,15.24-9.58,18.43-6.96,4.37-13.94-2.02-18.36-8.15-5.56-7.71-12-15.4-15.11-24.16-38-106.97-64.74-216.12-56.66-330.85,1.95-27.71,9.4-55.02,14.05-82.56,2.57-15.19,5.74-30.42,6.48-45.73.56-11.68-1.08-25.09-15.23-28.79-13.79-3.61-29.33-4.16-38.49,8.87-8.67,12.34-16.22,26.46-20.21,40.92-10.88,39.46-11.51,80.26-9.01,120.77,2.95,47.77,7.43,95.47,12.51,143.06,6.21,58.2,21.33,114.21,43.24,168.56,5.94,14.74,8.79,30.95,11.16,46.77.78,5.24-2.87,13.68-7.2,16.56-6.52,4.32-14.91.99-19.51-5.4-8.99-12.45-19.64-24.64-24.84-38.71-15.03-40.69-28.41-82.04-41.1-123.55-15.59-50.99-18.06-104.41-27.11-156.63-12.64-72.96-15.53-146.65-12.44-220.3,2.38-56.73,12.72-112.69,31.94-166.56,9.45-26.48,17.72-53.25,15.09-81.91-.87-9.47-1.45-19.44-4.9-28.1-9.43-23.71-24.04-42.68-52.29-44.26-31.73-1.77-61.25,2.88-76.06,36.03-5.61,12.55-9.34,26.45-11.23,40.1-14.4,103.99-15.27,208.7-12.06,313.29,1.28,41.73,8.89,83.53,16.62,124.73,8.95,47.73,20.3,95.06,32.33,142.13,8.8,34.42,24.77,65.97,43.31,96.41,7.82,12.85,12.11,28.19,16,42.92,1.3,4.93-2.11,14.76-6.02,16.56-5.64,2.6-15.12,2.21-20.4-1.06-7.08-4.38-12.74-12.1-17.21-19.48-26.84-44.22-48.82-90.93-65.54-139.8-27.01-78.99-45.85-160.29-55.49-243.05-9.69-83.23-23.35-166.52-15.75-235.06Z"/>
  <path d="M1079.07,415.1c3.34,33.64-2.92,68.39-9.26,103.24-3.68,20.24-4.96,40.92-8.41,61.21-5.3,31.17-10.48,62.43-17.58,93.22-25.42,110.26-63.24,216.2-113.26,317.68-3.78,7.67-8.82,15.77-15.46,20.72-10.54,7.87-21.3,2.2-20.2-10.83,1.14-13.67,4.29-27.64,9.28-40.42,8.29-21.22,20.28-41.03,28.02-62.42,26.15-72.23,42.53-147.01,54.82-222.71,4.95-30.48,11.94-61,13.06-91.68,3.26-89.05,5.94-178.24-6.64-266.96-2.07-14.56-3.2-29.37-6.61-43.62-7.63-31.88-29.13-51.44-58.67-55.13-34.33-4.29-65.58,10.1-80.47,38.33-16.9,32.04-16.69,65.64-3.09,98.29,17.16,41.2,29.28,83.61,32.45,127.94,2.68,37.39,5.64,75.41,1.86,112.48-8.97,87.87-19.88,175.65-33.87,262.84-9.54,59.5-25.39,117.99-38.99,176.8-2.11,9.13-6.61,17.91-11.15,26.22-3.55,6.51-9.71,13.47-17.5,9.55-4.59-2.31-9.22-10.68-8.74-15.84,1.76-18.89,3.84-38.12,9.13-56.25,11.61-39.77,19.72-80.11,23.74-121.24,5.38-54.94,10.97-109.9,14.46-164.97,2.47-38.87,2.22-77.95,1.95-116.93-.13-18.71-6.4-36.19-18.39-51.12-11.55-14.37-27.56-20.23-42.85-15.63-15.12,4.55-24.78,17.97-24.91,37.74-.07,10.89.92,22.42,4.47,32.6,19.2,55.02,20.31,111.7,13.06,168.22-7.77,60.55-19.49,120.6-30.04,180.77-3.3,18.81-7.74,37.49-12.93,55.87-2.55,9.03-7.41,17.63-12.5,25.61-1.85,2.91-7.88,5.35-11.13,4.53-3.09-.78-6.98-6-7.14-9.43-.72-14.64-1.39-29.47.19-43.99,2.07-19,5.7-37.88,9.69-56.6,8.07-37.86,9.65-75.95,5.35-114.3-.97-8.69-2.55-17.7-5.94-25.67-10.72-25.25-36-30.09-55.12-10.39-8.65,8.91-15.29,19.75-23.03,29.57-5.29,6.72-10.23,17.91-19.79,14.01-9.79-3.99-5.77-15.4-3.78-23.72,7.88-33.03,18.54-65.07,33.58-95.66,33.77-68.7,66.78-137.68,94.79-209.09,18.79-47.9,40.86-94.57,62.83-141.14,32.74-69.41,58.52-141.49,84.5-213.54,8.49-23.55,18.2-46.66,27.44-69.93,1.63-4.1,3.6-8.07,5.6-12.01,17.71-34.86,52.19-36.79,78.68-20.48,33.23,20.46,59.26,47.96,73.26,85.66,15.75,42.43,26.1,85.61,27.23,131.26.92,37.45,5.6,74.8,7.8,112.24,1.04,17.62.18,35.36.18,55.06Z"/>
</svg>