<svg id="Layer_1" xmlns="http://www.w3.org/2000/svg" viewBox="0 0 1080 1080" width="800" height="600" stroke="#5f00bf" fill="#999">
  <path d="M538.61,1080c-78.87-6.14-145.64-13.75-211.69-36.38-7.96-2.73-16.23-4.49-23.64-10.14-47.08-35.91-94.74-69.57-140.67-110.34-37.11-32.94-67.1-85.68-91.29-149.65-10.78-28.51-22.17-56.17-33.25-84.27-18.03-45.7-29.79-96.79-36.08-152.72-5.33-47.37-.07-89.11,16.86-125.6,14.16-30.53,28.08-61.47,41.89-92.58,12.61-28.43,28.61-47.41,45.31-66.01,71.82-79.97,149.22-131.41,228.94-173.66,51.76-27.43,102.87-57.54,156.45-70.86,49.52-12.31,98.04-11.67,146.48,13.94,21.91,11.58,44.66,17.17,66.87,26.76,76.62,33.07,154.48,57.82,225.62,127.03,36.69,35.69,68.28,82.55,92.99,145.86,11.89,30.45,23.36,61.53,35.7,91.28,20.33,49.01,26.61,101.38,15.38,161.98-6.11,32.96-10.01,67.77-13.07,102.35-3.34,37.77-11.29,69.76-25.96,95.39-45.32,79.19-92.74,148.76-153.93,182.49-65.94,36.34-133.18,58.75-199.93,86.6-19.39,8.09-38.59,18.96-58.19,23.68-32.05,7.72-64.36,11.43-84.77,14.86ZM243.82,507.65v.13c12.5,0,25.09-1.73,37.48.54,10.09,1.85,20.47,6.05,29.77,13.5,21.02,16.84,27.93,47.59,20.55,89.08-3.78,21.24-8.93,41.64-13.92,62.02-10.87,44.39-14.9,90.99-13.49,139.72,1.45,50.16,12.61,88.48,35.7,114.05,18.27,20.22,37.8,31.2,58.73,32.31,19.85,1.06,39.75-.56,59.59.93,25.59,1.93,47.93-12.2,66.87-45.01,25.71-44.54,52.59-50.89,82.22-13.42,18.23,23.05,38.94,30.41,60.86,31.8,41.41,2.62,82.09-9.12,123.04-16.93,40.67-7.75,76.99-35.12,109.73-80.89,11.87-16.6,22.96-35.26,34.77-52.04,23.6-33.51,34.39-79.76,36.34-134.18.95-26.62.85-53.56-.02-80.21-2.57-78.7-22.58-135.59-60.29-168.04-12.68-10.91-25.9-20.06-39.24-27.59-34.21-19.32-69.69-19.59-104.9-23.2-52.89-5.41-100.21,21.09-140.95,88.34-17.93,29.6-38.77,50.33-61.85,63.13-17.85,9.9-33.41,1.63-48.38-15.63-11.29-13.01-16.09-32.38-13.1-57.46,1.96-16.45,4.68-32.58,6.63-49.04,10.04-84.84-3.27-124.54-47.82-142.47-21.57-8.68-43.61-14.14-64.72-25.82-30.76-17.03-61.77-24.17-93.64-22.21-37.04,2.28-71,23.23-101.52,62.51-29.42,37.86-44.59,92.57-45.88,160.35-1.14,59.94,12.17,89.62,43.32,95.28,14.58,2.65,29.4.45,44.11.45Z"/>
  <path d="M697.99,839.79c-2.86-2.11-9.88-4.52-10.02-7.97-.33-8.1,1.36-19.41,4.44-24.67,29.61-50.58,59.77-100.4,96.31-131.86,10.9-9.38,24.09-12.66,36.13-12.04,6.59.34,15.03,12.07,18.94,23.35,4.97,14.34-.16,30.76-6.45,41.01-10.01,16.3-20.28,32.98-31.75,44.87-33.18,34.41-68.96,54.99-107.61,67.31Z"/>
</svg>