<?xml version="1.0" encoding="UTF-8"?>
<svg id="Layer_1" xmlns="http://www.w3.org/2000/svg" viewBox="0 0 1080 1080">
  <path d="M74.25,904.7c-1.08-34.24,7.3-68.91,26.16-100.64,19.66-33.08,35.86-67.22,40.4-106.42,2.72-23.52,14.69-42.3,35.13-54.76,29.51-17.98,48.14-44.42,64.44-75.19,25.9-48.87,55.82-95.61,85.49-142.3,13.49-21.23,24.12-43.02,28.63-67.79,3.8-20.86.4-39.71-12.12-57.63-27.68-39.6-58.1-76.1-100.68-99.88-14.14-7.9-29-14.5-43.68-21.36-5.35-2.5-11.29-3.66-16.68-6.06-21.91-9.76-30.22-26.62-22.28-49.34,16.3-46.62,46.36-79.85,93.93-94.58,16.27-5.04,28.91-.8,39.03,12.92,3.53,4.78,6.16,10.25,9.08,15.48,24.06,43.15,48.09,86.32,72.14,129.47,14.89,26.71,36.1,47.58,60.24,65.31,30.57,22.45,62.95,28.04,97.21,8,16.66-9.74,34.2-18.07,50.2-28.81,46.83-31.45,96.29-58.95,139.23-96.34,12.27-10.69,26.97-18.45,40.2-28.05,22.31-16.19,25.17-28.3,13.48-53.96-1.24-2.73-2.76-5.33-3.94-8.09-10.68-24.9-1.66-41.08,25.32-43.96,9.44-1.01,19.43-1.11,28.64.9,29.59,6.46,58.96,13.93,88.34,21.33,27.22,6.86,54.26,14.48,81.54,21.11,23.18,5.64,45.65,12.96,65.37,26.89,27.5,19.43,28.12,44.22.53,63.28-11.97,8.27-26.41,13.01-40.03,18.57-21.89,8.93-43.96,17.43-66.12,25.67-15.22,5.66-30.46,11.62-46.14,15.58-32.24,8.15-64.79,15.02-97.2,22.51-4.31,1-8.89,1.81-12.69,3.91-48.9,27.04-105.35,34.19-154.39,60.72-17.58,9.51-34.84,19.64-51.97,29.98-23.49,14.18-45.66,31.09-70.25,42.79-46.43,22.08-74.08,57.63-86.37,107.68-13.43,54.71-30.62,108.22-49.52,161.35-16.04,45.08-25.56,92.53-38.93,138.64-6.87,23.69-15.76,46.78-23.94,70.06-5.46,15.55-12.61,30.61-16.72,46.5-11.47,44.33-22.21,88.88-32.4,133.54-11.73,51.42-17.43,57.37-69.48,66.57-42.78,7.56-79.72-10.21-99.89-49.42-19.5-37.9-30.02-78.35-29.33-124.17Z"/>
  <path d="M960.97,921.14c3.94,26.65.49,52.54-10.77,76.84-15.73,33.96-47.89,41.67-76.34,17.27-11.7-10.03-22.14-22.26-30.87-35.09-40.32-59.26-79.83-118.84-114.68-181.98-26.65-48.28-53.43-96.56-79.76-145.08-12.9-23.77-29.75-44.6-48.85-63.79-23.77-23.89-44.27-50.51-56.97-82.44-3.04-7.63-6.01-15.47-7.54-23.5-3.85-20.21,4.59-40.16,19.76-48.91,15.1-8.71,36.96-6.5,51.71,6.2,6.12,5.27,11.55,11.73,16.09,18.49,12,17.9,27.63,31.38,46.75,40.34,25.86,12.12,47.52,29.51,68.13,49.39,48.23,46.51,97.63,91.78,146.64,137.45,4.89,4.55,9.88,9.4,15.67,12.46,22.82,12.05,33.17,32.15,40.2,56.38,8.97,30.95,21.5,60.81,20.9,93.97-.43,23.99-.09,48-.09,72Z"/>
  <path d="M.33,464.4c1.11-11.4,1.71-27.96,4.53-44.12,3.98-22.77,17.22-39.44,37.11-50.59,34.09-19.1,69.43-31.55,109.5-30.75,27.77.55,55.69-4.41,83.49-7.37,16.01-1.71,29.45,1.12,36.94,17.5,6.92,15.14,3.62,31.2-11.27,44.49-28.4,25.35-61.94,40.28-98.93,47.38-8.7,1.67-17.45,3.05-26.19,4.51-32.66,5.45-60.31,18.66-78.35,48.93-5.61,9.41-13.43,18.25-22.09,24.83-16.53,12.55-32.64,4.8-34.56-16-1.03-11.17-.18-22.51-.18-38.82Z"/>
  <path d="M474.46,160.35c-7.69.1-15.4-7.74-15.6-15.87-.24-9.77,8.82-19.02,18.21-18.58,8.22.39,14.62,7.89,14.24,16.71-.38,8.88-8.69,17.64-16.85,17.74Z"/>
</svg>