<?xml version="1.0" encoding="UTF-8"?>

<svg id="Layer_1" xmlns="http://www.w3.org/2000/svg" viewBox="0 0 1080 1080" width="800" height="600" fill="#999" >
  <path d="M488.15.37c19.65-1.89,40.34,3.7,60.19,12.92,17.8,8.27,28.76,21.18,25.96,42.4-1.37,10.38-2.5,20.85-4.82,31.03-4.67,20.5,1.36,36.84,16.98,50.16,19.61,16.72,41.87,28.15,66.38,35.75,38.33,11.88,77.11,22.68,114.48,37.17,45.95,17.82,86.28,43.97,107.25,92.41,6.55,15.12,14.83,29.48,21.25,44.65,15.53,36.68,43.41,53.77,82.05,54.61,8.92.19,17.88-.31,26.75.38,17.01,1.32,28.89,11.57,33.65,28.12,11.54,40.09-14.14,77.56-55.53,79.31-13.09.55-26.62-1.78-39.44-4.9-13.65-3.32-26.65-9.32-40.03-13.85-46.57-15.76-86.3-3.25-120.33,30.72-8.41,8.4-16.19,17.73-22.83,27.61-16.73,24.89-38.58,43.44-64.85,57.11-7.26,3.78-14.65,7.5-21.32,12.2-18.68,13.13-23.73,30.44-13.53,51.02,4.88,9.85,11.85,19.26,19.77,26.83,24.28,23.22,48.61,46.54,74.54,67.79,34.03,27.9,69.9,53.49,104.37,80.86,12.73,10.11,24.93,21.45,35.23,34.01,15.14,18.47,33.05,31.58,55.11,40.4,28.98,11.59,57.35,24.75,85.78,37.7,8.76,3.99,17.27,8.9,25.12,14.49,12.79,9.1,21.1,21.06,19.46,38.01-.29,2.98-.02,6.01-.03,9.01-.13,41.98-15.86,58.53-57.38,54.35-24.07-2.42-47.74-10.41-71.2-17.25-20.65-6.02-40.7-14.11-61.12-20.94-16.7-5.59-33.44-5.22-50.44-.41-31.45,8.91-63.76,15.73-92.25,32.59-25.48,15.07-52.41,15.16-79.9,10.98-20.53-3.12-40.75-6.93-61.77-4.52-21.88,2.51-42.53-2.96-62.81-11.71-12.82-5.53-26.82-8.39-40.42-11.95-20.05-5.25-40.52-9.06-60.23-15.32-21.57-6.85-43.15-12.4-65.63-7.94-33.88,6.73-67.71,7.6-101.79,2.4-33.69-5.14-66.46,2.84-99.34,7.84-21.26,3.23-42.27,8.34-63.24,13.22-26.68,6.22-51.66,2.07-75.11-11.61-17.53-10.23-25.93-24.86-24.97-46.46.9-20.32,11.19-32.34,27.57-39.85,12.04-5.52,25.03-9.85,38.04-12.1,26.51-4.59,46.34-18.35,62.73-39.33,11.93-15.27,25.7-29.06,38.41-43.73,8.31-9.59,17.3-18.85,24.05-29.51,19.52-30.85,46.28-53.04,79.1-67.06,36.77-15.72,64.05-43.29,90.99-71.17,20.08-20.78,18.84-38.04-1.33-58.74-5.19-5.33-10.89-10.32-16.99-14.53-41.71-28.8-83.66-57.22-125.37-86.03-16.55-11.43-33.78-22.22-48.71-35.58-24.5-21.92-50.04-26.4-79.97-12.92-24.08,10.85-48.9,12.41-72.61-2.02-24.42-14.86-33.27-39.39-25.12-68.22,7.69-27.21,27.83-43.55,55.12-43.63,11.06-.03,22.44.45,33.12,3.04,26.87,6.5,48.51-.01,64.5-23.19,14-20.29,30.2-39.51,41.11-61.4,28.67-57.52,77.18-85.09,136.28-98.58,12.3-2.81,24.63-5.62,37.05-7.83,47.4-8.42,60.48-46.65,56.86-85.18-1.26-13.41-4.96-26.66-5.46-40.06-1.29-34.57,16.47-52.78,50.76-53.59,4.46-.11,8.92-.01,15.87-.01ZM565.93,491.33c.02.84.04,1.68.05,2.52,9.58-.97,19.18-1.76,28.73-2.93,73.44-9.01,138.37-44.12,206.44-69.46,21.55-8.02,24.09-25.37,8.2-42.92-19.86-21.93-42.75-39.51-73.21-43.86-25.69-3.67-51.24-9.79-77.03-10.96-63.69-2.88-127.46-5.35-191.24-1.25-26.64,1.71-53.51,1.5-79.89,5.05-43.07,5.79-82.38,24.41-122,41.27-8.03,3.42-15.39,9.24-21.98,15.19-17.16,15.48-17.81,35.7.04,50.36,10.06,8.25,22.95,13.63,35.32,18.2,22.98,8.5,46.29,16.36,69.91,22.78,20.72,5.63,41.92,11.64,63.14,12.72,51.1,2.59,102.34,2.38,153.52,3.3ZM443.18,876.75c.31,41.52,17.21,60.25,54.76,64.22,15.25,1.61,28.71,7.07,40.47,16.91,5.14,4.3,10.1,8.84,15.36,13,9.24,7.31,18.86,8.07,28.72,1.08,6.68-4.74,12.9-10.49,20.18-13.92,11.74-5.52,17.42-14.99,16.44-26.79-1.65-20-3.62-40.29-8.68-59.6-8.93-34.02-20.05-67.46-30.7-101-9.98-31.41-20.36-62.69-30.94-93.9-3.06-9.02-9.29-15.79-19.4-16.13-11.2-.37-14.36,8.79-17.86,17.2-8.04,19.34-14.46,39.61-24.59,57.76-19.64,35.16-29.93,73.36-39.53,111.9-2.7,10.83-3.25,22.2-4.22,29.26Z"/>
</svg>