<?xml version="1.0" encoding="UTF-8"?>
<svg id="Layer_1" xmlns="http://www.w3.org/2000/svg" viewBox="0 0 1080 1080">
  <path d="M123.09,0c21.92,2.62,45.92,3.96,69.27,8.55,77.79,15.29,156.04,26.99,234.67,37.16,51.76,6.7,102.92,18.7,153.93,30.17,22.47,5.05,43.95,14.55,65.77,22.32,34.52,12.29,68.82,25.18,103.44,37.18,44.08,15.28,77.96,43.08,104.56,80.9,21.03,29.89,43.22,58.97,64.75,88.52,5.27,7.23,10.27,14.69,14.87,22.36,14.18,23.63,28.34,47.29,42,71.22,4.4,7.71,8.04,16.05,10.71,24.52,10.54,33.44,20.88,66.94,30.67,100.6,8.58,29.51,17.7,58.71,37.66,82.94,21.36,25.92,27.11,55.73,23.69,88.2-1.33,12.6-2.52,25.26-2.89,37.92-.82,28.49-11.84,51.95-33.3,70.7-6.19,5.4-13.11,10.34-18.03,16.76-41.15,53.66-97.97,84.55-159.32,108.18-56.03,21.58-56.6,32.74-136.46,13.14-20.26-4.97-41.53-5.78-61.9-10.42-18.07-4.12-36.85-8.42-53.04-16.95-66.31-34.93-129.28-75-184.11-126.74-8.62-8.13-18.35-15.58-28.73-21.23-8.23-4.48-18.16-7.62-27.46-7.95-14.59-.52-23.9,10.64-21.62,24.99,1.24,7.8,4.71,15.74,8.95,22.5,24.77,39.51,57.48,70.25,100.75,89.22,32.88,14.41,65.32,29.81,98.3,43.96,32.61,13.98,58.03,36.83,79.59,63.88,7.55,9.48,12.22,22.15,15.18,34.11,3.47,14.04-2.77,26.46-14.08,35.56-13.75,11.07-29.21,10.62-39.42-3.64-32.46-45.35-80.29-62.76-131.63-73.6-40.23-8.5-80.98-14.47-119.1-31.18-24.95-10.94-47.13-25.3-67.13-43.88-21.85-20.29-44.8-39.44-67.9-58.33-20.27-16.58-34.31-37.26-43.97-61.15-23.77-58.8-46.9-117.86-71.2-176.44-10.84-26.12-23.69-51.42-35.96-76.94-6.14-12.76-13.53-24.94-19.51-37.76-9.33-19.99-13.83-41.21-10.52-63.14,7.07-46.9,1.65-93.81,1.51-140.73-.1-33.65-.36-67.13-9.24-99.85-5.66-20.88-12.12-41.54-17.82-62.4C1.68,116.43-4.47,89.37,4.35,61.77,14.88,28.78,38.63,10.36,72.1,4.64,88.19,1.89,104.7,1.59,123.09,0ZM802.11,796.05c-9.7-.77-19.43-1.35-29.11-2.36-36.06-3.78-65.83-20.05-88.47-47.75-7.72-9.44-12.52-21.95-16.12-33.82-3.36-11.09-.44-22.48,9.13-30.51,9.9-8.3,21.1-6.72,31.72-1.84,8.11,3.73,15.48,9.05,23.33,13.38,7.84,4.32,15.62,8.91,23.88,12.25,13.49,5.47,26.63,4.69,37.27-6.4,10.76-11.21,11.42-24.89,3.92-37.27-13.89-22.9-26.65-47.44-44.88-66.55-29.24-30.63-67.7-43.07-108.85-28.75-42.52,14.8-77.71,39.98-84.44,89.5-2.4,17.69-3.53,35.69-3.5,53.55.07,37.4,11.88,70.49,40.19,96.31,54.59,49.79,119.27,78.89,191.78,90.9,22.71,3.76,45.18-.47,65.09-12.25,43.33-25.66,83.52-54.72,112.98-97.07,33.8-48.59,37.3-99.33,16.34-153.06-10.31-26.42-21.56-52.48-31.92-78.89-23.84-60.77-60.77-110.35-116.9-146.1-25.58-16.29-47.03-38.95-70.87-58.1-14.49-11.63-28.75-24.49-45.22-32.52-31.54-15.37-64.59-27.66-96.98-41.3-27.54-11.6-55.5-11.27-83.43-2.18-42.6,13.87-85.25,27.63-127.44,42.66-32.16,11.46-57.68,31.72-71.35,63.9-9.91,23.33-19.28,46.95-27.48,70.92-12.33,36.02-23.82,72.38-27.88,110.5-3.24,30.44.5,59.85,16.92,86.23,10.65,17.1,25.39,30.13,47.28,29.32,22.24-.82,34.51-15.7,43.57-33.95,2.32-4.68,3.84-9.77,6.35-14.32,9.36-16.96,18.62-34,28.62-50.59,9.63-15.97,21.2-30.85,30.01-47.22,12.78-23.76,31.57-38.85,56.98-47.39,21.95-7.38,43-17.5,65.1-24.33,15.47-4.79,32.27-9.48,48.05-8.34,58.49,4.22,115.05,14.93,167.16,45.61,49.33,29.04,80.59,70.14,97.9,123.17,8.1,24.82,14.77,50.09,22.66,74.98,5.91,18.65,3.14,35.63-8.94,50.63-26.22,32.52-58.25,53.55-102.46,49.07Z"/>
</svg>