<?xml version="1.0" encoding="UTF-8"?>
<svg id="Layer_1" data-name="Layer 1" xmlns="http://www.w3.org/2000/svg" viewBox="0 0 1080 1080">
  <g id="q7VwNm.tif">
    <path d="M329.81,982.5c-19.81-30.86-36.95-60.49-61.2-85.17-17.71-18.03-17.61-26.8-38.3-19.61-16.56,5.76-52.2,27-63.73,41.69-14.68,18.69-17.1,5.61-30.34,25.61-14.19,21.43-22.47,35.65-44.2,44.4-20.02,8.06-35.41,22.35-47.5,41.89-2.87,4.63-6.56,8.8-10.45,12.38-7.98,7.34-18.16,5.32-25.88-4.75-8.77-11.44-10.52-23.71-5.26-38.19,10.26-28.23,27.96-31.93,50.81-44.91,23.34-13.26,35.61-23.32,55.35-42.18,15.58-14.89,28.22-17.63,45.35-30.34,19.29-14.3,25.11-28.87,40.03-49.03,16.19-21.87,16.92-33.07-1.05-53.73-12.85-14.77-11.33-16.38-20.02-34.3-10.53-21.72-13.01-28.7-22.12-56.02-10.62-31.83-6.9-27.77-17.91-59.45-5-14.39-12.34-20.03-13.69-35.44-1.33-15.09-9.77-41.95-10.53-57.16-.88-17.38-7.33-26.93-8.16-44.31-1.06-22.34-6.74-59.92-6.32-82.31.2-10.86-1.85-28.9-.61-39.7,1.95-17.01,4.09-34,6.37-50.96,1.79-13.34,2.54-27.13,6.17-39.83,7.73-27.06,26.35-43.36,47.64-55.94,12-7.09,27.15-10.99,40.94-8.96,10.86,1.6,18.92,3.96,29.69,6.69,15.23,3.86,30.7,6.59,45.86,10.74,15.72,4.3,30.93,20.64,43.13,32.88,9.1,9.12,16.72,24.82,28.79,25.91,8.43.76-4.94-26.93,14.09-25.3,19.62,1.67,43.5,69.72,51.57,68.75,4.74-.57,2.4-.14,4.21-1.71,7.02-6.1-6.54-33.92-8.95-40.01-4.02-10.18-29.32-88.6-26.51-131.28,1.18-17.99-.29-41.35,2.87-59.31,3.69-20.91,4.52-42.91,16.31-60.74,4.62-6.99,10.6-13.5,17.14-18.02,17.82-12.3,21.37-22.93,43.04-24.27,34.71-2.15,45.31,3.49,70.93,12.19,25.97,8.82,46.98,27.39,52.95,35.97,11.27,16.21,19.2,36.79,36.9,41.44,16.91,4.44,13.63-23.52,33.58-19.29,18.64,3.95,45.75,93.59,57.77,123.28s19.39,34.95,30.11,66.2c10.99,32.04,18.08,50.61,6.15,54.76-11.13,3.87-9.7,9.1-33.82-20.72-7.92-9.79-29.33-37.74-37.2-47.65-13.82-17.4-21.22-64.82-39.67-55.94-20.32,9.78-28.27-1.2-42.5-20.65-21.1-28.86-58.42-30.89-79.01-28.58-30.55,3.43-44.24,14.86-52.67,42.3-7.79,25.37-10.25,28.62-14.75,54.88-2.21,12.9-1.1,19.77-.06,33.42.65,8.51.41,17.17,1.67,25.55,1.63,10.9,3.46,21.96,6.8,32.28,6.68,20.62,13.95,41.04,21.87,61.08,12.5,31.63,25.08,63.27,39.03,94.08,4.69,10.35,12.54,19.99,20.93,26.8,15.54,12.6,32.15,8.43,47.21-2.52,18.65-13.56,36.52-28.5,55.21-41.97,13.84-9.97,38.09-37.37,50.83-48.78,15.42-13.82,29.48-30.04,42.39-46.95,18.44-24.15,167.52-144.74,192.07-160.02,20.79-12.94,38.44-28.86,49.22-54.18,10.31-24.21,31.62-34.42,51.62-45.45,20.56-11.34,41.63-.5,48.75,24.41,4.11,14.37,11.56,30.72,3.93,39.15-16.62,18.39.27,34.79-2.11,59.45-3.67,38.09-2.21,66.21-25.28,93.75-14.56,17.37-93.32,55.65-113.19,64.24-31.84,13.76-190.38,114.91-222.63,127.3-18.61,7.15-34.92,19.72-58.5,29.93-21.16,9.16-42.95,13.38-59.61,32.01-4.21,4.71-9.85,7.72-14.51,11.96-13.02,11.85-13.13,27.16-4.84,42.81,16.18,30.51,29.72,68.47,36.94,99.01,4.36,18.43,13.1,22.96,23.72,38.4,2.9,4.22,15.23-11.46,15.81-16.43,3.39-28.75,11.21-53.37,27.11-52.75,23.02.91,33.46,109.3,67.76,117.74,25.79,6.34,19.15,18.18,57.02,14.18,17.33-1.83,28.68-13.59,36.13-30.61,4.89-11.16,8.98-22.76,13.8-33.96,8.06-18.72,5.25-37.94,1-56.53-4.36-19.04-3.45-31.91-7.69-50.97-4.8-21.56-24.15-101.26-29.5-122.71-7.02-28.2-11.55-43.83.7-47.25,13.47-3.77,12.13-2.96,21.77,6.1,21.25,19.97,21.96,48.15,33.48,72.39,6.48,13.63,36.3,52.21,49.58,107.1,4.42,18.28,11.15,48.66,14.91,67.13,2.14,10.54,6.22,21.36,5.53,31.72-2.24,33.46,2.32,65.44,11.77,96.87.75,2.48.89,5.2,1.31,7.81v1.92c-1.74,6.55-.82,15.15-5.38,19.55-32.55,31.48-31.62,85.32-47.29,95.5-15.83,10.29-62.36,4.38-82.17,0-16.54-3.66-32.94-7.86-44.33-23.47-7.91-10.85-35.97-28.87-44.16-39.4-15.9-20.47-17.81-64.56-33.61-66.85-15.15-2.19-2.01,68.39-35.89,84.48-18.63,8.85-36.8-20.64-42.76-28.61-19.11-25.53-22.83-82.1-32.77-116.99-6.96-24.44-21.02-74.23-25.58-95.35-7.37-34.14-10.21-81.06-39.03-69.96-8.06,3.1-43.04,27.19-51.61,28.42-7.84,1.13-27.53,15.88-34.36,19.94-9.02,5.37-16.02,15.38-25.21,20.06-23.89,12.19-43.44,30.57-61.73,51.14-3.22,3.62-22.89,13.45-24.66,18.07-7.33,19.17-20.32,19.55-10.76,35.52,11.51,19.23,38.7,47.33,51.37,65.63,8.8,12.72,41.97,31.2,56.18,35.06,11.88,3.22,21.12.3,33.31-.64,9.12-.7,18.78-4.5,26.75-9.76,13.86-9.15,19.38-26.6,27.2-41.48,6.89-13.1,13.16-45.69,13.16-60.17,0-13.16,11.79-23.9,21.07-17.53,15.16,10.41,20.63,13.36,15.45,32.77-5.16,19.36,12.42,95.6,7.73,115.09-7.19,29.84-11.99,43.86-15.45,74.69-2.44,21.74-17.84,51.85-37.92,56.4-8.95,2.03-30.29,8.74-39.33,10.67-34.68,7.41-65.44-25.53-88.49-44.21-23.05-18.67-38.39-23.07-57.12-52.23ZM216.63,653.64c8.43,30.87,20.07,49.92,28.44,67.45,6.52,13.66,13.4,29.47,27.39,32.01,11.96,2.17,31.48-10.77,54.08-29.34,9.93-8.16,40.26-22.57,49.56-31.52,11.26-10.83,20.82-23.93,32.07-34.78,18.81-18.16,38.3-35.39,57.61-52.86,17.72-16.04,38.1-39.72,25-60.56-17.38-27.67-34.59-17.76-57.5-68.74-9.33-20.76-40.42-101.55-60.75-96.03-16.86,4.57,10.53,52.59-26.34,40.01-18.53-6.32-48.11-42.45-62.58-48.88-13.74-6.1-33.36-4.72-46.28,2.77-22.38,12.97-33.81,36.79-40.59,61.91-6.25,23.15-12.06,37.97-7.24,61.84,3.49,17.27,3.21,50.49,8.16,83.56,3,20.07,16.15,53.35,18.96,73.17Z"/>
  </g>
</svg>