<svg width="24" height="24" fill="none" xmlns="http://www.w3.org/2000/svg"><path d="M11.695 2.057a1.04 1.04 0 0 0-.567.459l-.108.184-.011 5.938-.01 5.938-1.73-1.724c-1.653-1.649-1.739-1.727-1.946-1.788-.266-.078-.377-.08-.613-.009a1.02 1.02 0 0 0-.582.461c-.092.156-.108.229-.107.484 0 .212.022.341.074.44.1.192 5.199 5.298 5.425 5.433.152.091.226.107.48.107s.328-.016.48-.107c.226-.135 5.325-5.241 5.425-5.433.052-.099.074-.228.074-.44.001-.255-.015-.328-.107-.484a1.02 1.02 0 0 0-.582-.461c-.236-.071-.347-.069-.613.009-.207.061-.293.139-1.946 1.788l-1.73 1.724-.01-5.938L12.98 2.7l-.108-.184a1.005 1.005 0 0 0-1.177-.459m-6 18a1.04 1.04 0 0 0-.567.459c-.091.156-.108.23-.108.484 0 .256.016.328.111.489.125.213.318.375.539.454.123.044 1.268.053 6.33.053s6.207-.009 6.33-.053c.221-.079.414-.241.539-.454.095-.161.111-.233.111-.489 0-.254-.017-.328-.108-.484a1.02 1.02 0 0 0-.582-.461c-.262-.079-12.343-.077-12.595.002" fill-rule="evenodd" fill="#000" class="svg-fill"/></svg>