<?xml version="1.0" encoding="UTF-8"?>
<svg id="Layer_1" data-name="Layer 1" xmlns="http://www.w3.org/2000/svg" viewBox="0 0 1080 1080">
  <defs>
    <style>
      .cls-rect {
        fill: #d1d3d4;
      }
    </style>
  </defs>
  <g>
    <path d="M97.86,813.9h37.58l98.23,266.04h-36.46l-28.28-81.11H62.88l-28.65,81.11H0l97.86-266.04ZM72.56,971.66h87.07l-30.51-89.3c-5.21-14.88-11.91-37.58-11.91-37.58h-.74s-7.07,22.33-12.28,37.58l-31.63,89.3Z"/>
    <path d="M359.81,1079.94v-26.42h-.74c-13.77,18.6-30.14,30.88-58.05,30.88-39.44,0-64.74-23.81-64.74-63.63v-133.21h30.14v132.46c0,24.93,16,39.44,43.16,39.44,30.51,0,50.23-23.07,50.23-53.58v-118.32h30.14v192.37h-30.14Z"/>
    <path d="M405.2,984.31c0-64,36.84-101.21,84.46-101.21,27.16,0,48,13.39,60.28,31.63h.75v-100.84h30.14v266.04h-30.14v-23.44h-.75c-14.51,18.6-32.37,29.02-59.53,29.02-52.46,0-85.21-39.44-85.21-101.21ZM552.55,984.68c0-44.65-21.58-75.91-61.39-75.91-36.46,0-55.07,32.74-55.07,75.91s18.6,75.53,55.44,75.53c42.79,0,61.02-32,61.02-75.53Z"/>
    <path d="M606.87,813.9h30.14v37.21h-30.14v-37.21ZM606.87,887.57h30.14v192.37h-30.14v-192.37Z"/>
    <path d="M693.94,1054.64h-.74v25.3h-30.14v-266.04h30.14v101.21h.74c14.51-19.72,33.86-32,61.77-32,48.74,0,81.86,37.21,81.86,101.21s-30.88,101.21-82.98,101.21c-26.05,0-45.02-9.3-60.65-30.88ZM806.68,984.68c0-43.16-17.49-75.91-53.95-75.91-42.05,0-61.39,34.23-61.39,75.91s20.09,75.53,61.02,75.53c36.84,0,54.32-32,54.32-75.53Z"/>
    <path d="M853.94,813.9h30.14v266.04h-30.14v-266.04Z"/>
    <path d="M900.45,983.94c0-55.81,36.46-101.21,91.16-101.21,57.67,0,88.56,44.65,88.56,108.28h-148.83c2.23,39.07,23.44,68.84,62.14,68.84,27.91,0,46.51-13.39,53.21-39.44h29.39c-8.93,41.3-39.07,64.74-82.6,64.74-58.79,0-93.02-45.39-93.02-101.21ZM932.08,968.31h115.72c-1.86-38.32-21.58-61.77-56.19-61.77s-55.07,26.79-59.53,61.77Z"/>
  </g>
  <rect class="cls-rect" y="813.9" width="1080.17" height="265.73"/>
  <g>
    <path d="M97.86,813.9h37.58l98.23,266.04h-36.46l-28.28-81.11H62.88l-28.65,81.11H0l97.86-266.04ZM72.56,971.66h87.07l-30.51-89.3c-5.21-14.88-11.91-37.58-11.91-37.58h-.74s-7.07,22.33-12.28,37.58l-31.63,89.3Z"/>
    <path d="M359.81,1079.94v-26.42h-.74c-13.77,18.6-30.14,30.88-58.05,30.88-39.44,0-64.74-23.81-64.74-63.63v-133.21h30.14v132.46c0,24.93,16,39.44,43.16,39.44,30.51,0,50.23-23.07,50.23-53.58v-118.32h30.14v192.37h-30.14Z"/>
    <path d="M405.2,984.31c0-64,36.84-101.21,84.46-101.21,27.16,0,48,13.39,60.28,31.63h.75v-100.84h30.14v266.04h-30.14v-23.44h-.75c-14.51,18.6-32.37,29.02-59.53,29.02-52.46,0-85.21-39.44-85.21-101.21ZM552.55,984.68c0-44.65-21.58-75.91-61.39-75.91-36.46,0-55.07,32.74-55.07,75.91s18.6,75.53,55.44,75.53c42.79,0,61.02-32,61.02-75.53Z"/>
    <path d="M606.87,813.9h30.14v37.21h-30.14v-37.21ZM606.87,887.57h30.14v192.37h-30.14v-192.37Z"/>
    <path d="M693.94,1054.64h-.74v25.3h-30.14v-266.04h30.14v101.21h.74c14.51-19.72,33.86-32,61.77-32,48.74,0,81.86,37.21,81.86,101.21s-30.88,101.21-82.98,101.21c-26.05,0-45.02-9.3-60.65-30.88ZM806.68,984.68c0-43.16-17.49-75.91-53.95-75.91-42.05,0-61.39,34.23-61.39,75.91s20.09,75.53,61.02,75.53c36.84,0,54.32-32,54.32-75.53Z"/>
    <path d="M853.94,813.9h30.14v266.04h-30.14v-266.04Z"/>
    <path d="M900.45,983.94c0-55.81,36.46-101.21,91.16-101.21,57.67,0,88.56,44.65,88.56,108.28h-148.83c2.23,39.07,23.44,68.84,62.14,68.84,27.91,0,46.51-13.39,53.21-39.44h29.39c-8.93,41.3-39.07,64.74-82.6,64.74-58.79,0-93.02-45.39-93.02-101.21ZM932.08,968.31h115.72c-1.86-38.32-21.58-61.77-56.19-61.77s-55.07,26.79-59.53,61.77Z"/>
  </g>
</svg>