<?xml version="1.0" encoding="UTF-8"?>
<svg id="Layer_1" data-name="Layer 1" xmlns="http://www.w3.org/2000/svg" viewBox="0 0 1080 1080">
  <defs>
    <style>
      .cls-rect {
        fill: #d1d3d4;
      }
    </style>
  </defs>
  <g>
    <path d="M0,813.58h187.9v29.39H33.49v84.09h140.28v28.28H33.49v93.39h158.88v30.88H0v-266.04Z"/>
    <path d="M195.72,984c0-64,36.84-101.21,84.46-101.21,27.16,0,48,13.39,60.28,31.63h.74v-100.84h30.14v266.04h-30.14v-23.44h-.74c-14.51,18.6-32.37,29.02-59.53,29.02-52.46,0-85.21-39.44-85.21-101.21ZM343.06,984.37c0-44.65-21.58-75.91-61.39-75.91-36.46,0-55.07,32.74-55.07,75.91s18.6,75.53,55.44,75.53c42.79,0,61.02-32,61.02-75.53Z"/>
    <path d="M392.55,1090.42h27.91c2.98,21.21,23.07,29.39,52.84,29.39,35.35,0,55.07-16,55.07-49.49v-27.16h-.75c-14.14,18.23-29.39,29.77-56.93,29.77-49.86,0-84.09-39.81-84.09-95.25,0-59.91,37.58-94.88,82.23-94.88,27.91,0,45.77,10.79,58.79,29.02h.75v-24.56h30.14v181.95c0,50.6-33.49,74.42-84.46,74.42s-78.14-20.09-81.49-53.21ZM530.6,976.19c0-42.05-17.86-68.09-58.79-68.09-36.09,0-54.32,28.28-54.32,69.95s18.98,69.58,54.7,69.58c44.28,0,58.42-30.88,58.42-71.44Z"/>
    <path d="M573.76,983.63c0-55.81,36.46-101.21,91.16-101.21,57.67,0,88.56,44.65,88.56,108.28h-148.83c2.23,39.07,23.44,68.84,62.14,68.84,27.91,0,46.51-13.39,53.21-39.44h29.39c-8.93,41.3-39.07,64.74-82.6,64.74-58.79,0-93.02-45.39-93.02-101.21ZM605.39,968h115.72c-1.86-38.32-21.58-61.77-56.19-61.77s-55.07,26.79-59.53,61.77Z"/>
  </g>
  <rect class="cls-rect" y="813.58" width="753.48" height="266.04"/>
  <g>
    <path d="M0,813.58h187.9v29.39H33.49v84.09h140.28v28.28H33.49v93.39h158.88v30.88H0v-266.04Z"/>
    <path d="M195.72,984c0-64,36.84-101.21,84.46-101.21,27.16,0,48,13.39,60.28,31.63h.74v-100.84h30.14v266.04h-30.14v-23.44h-.74c-14.51,18.6-32.37,29.02-59.53,29.02-52.46,0-85.21-39.44-85.21-101.21ZM343.06,984.37c0-44.65-21.58-75.91-61.39-75.91-36.46,0-55.07,32.74-55.07,75.91s18.6,75.53,55.44,75.53c42.79,0,61.02-32,61.02-75.53Z"/>
    <path d="M392.55,1090.42h27.91c2.98,21.21,23.07,29.39,52.84,29.39,35.35,0,55.07-16,55.07-49.49v-27.16h-.75c-14.14,18.23-29.39,29.77-56.93,29.77-49.86,0-84.09-39.81-84.09-95.25,0-59.91,37.58-94.88,82.23-94.88,27.91,0,45.77,10.79,58.79,29.02h.75v-24.56h30.14v181.95c0,50.6-33.49,74.42-84.46,74.42s-78.14-20.09-81.49-53.21ZM530.6,976.19c0-42.05-17.86-68.09-58.79-68.09-36.09,0-54.32,28.28-54.32,69.95s18.98,69.58,54.7,69.58c44.28,0,58.42-30.88,58.42-71.44Z"/>
    <path d="M573.76,983.63c0-55.81,36.46-101.21,91.16-101.21,57.67,0,88.56,44.65,88.56,108.28h-148.83c2.23,39.07,23.44,68.84,62.14,68.84,27.91,0,46.51-13.39,53.21-39.44h29.39c-8.93,41.3-39.07,64.74-82.6,64.74-58.79,0-93.02-45.39-93.02-101.21ZM605.39,968h115.72c-1.86-38.32-21.58-61.77-56.19-61.77s-55.07,26.79-59.53,61.77Z"/>
  </g>
</svg>