<svg version="1.2" xmlns="http://www.w3.org/2000/svg" viewBox="0 0 1080 380" width="1080" height="380">
	<title>Edge</title>
	<style>
		.cls-rect { fill: #eaeaea90 }
	</style>
	<g>
		<path class="s0" d="m0 114.6h187.9v29.4h-154.4v84.1h140.3v28.2h-140.3v93.4h158.9v30.9h-192.4c0 0 0-266 0-266z"/>
		<path class="s0" d="m195.7 285c0-64 36.9-101.2 84.5-101.2 27.1 0 48 13.4 60.3 31.6h0.7v-100.8h30.1v266h-30.1v-23.4h-0.7c-14.5 18.6-32.4 29-59.6 29-52.4 0-85.2-39.4-85.2-101.2zm147.4 0.4c0-44.7-21.6-76-61.4-76-36.5 0-55.1 32.8-55.1 76 0 43.1 18.6 75.5 55.4 75.5 42.8 0 61.1-32 61.1-75.5z"/>
		<path class="s0" d="m392.6 391.4h27.9c2.9 21.2 23 29.4 52.8 29.4 35.4 0 55.1-16 55.1-49.5v-27.1h-0.8c-14.1 18.2-29.4 29.7-56.9 29.7-49.9 0-84.1-39.8-84.1-95.2 0-59.9 37.6-94.9 82.2-94.9 27.9 0 45.8 10.8 58.8 29h0.8v-24.5h30.1v181.9c0 50.6-33.5 74.4-84.4 74.4-51 0-78.2-20.1-81.5-53.2zm138-114.2c0-42.1-17.8-68.1-58.8-68.1-36.1 0-54.3 28.3-54.3 70 0 41.6 19 69.5 54.7 69.5 44.3 0 58.4-30.8 58.4-71.4z"/>
		<path class="s0" d="m573.8 284.6c0-55.8 36.4-101.2 91.1-101.2 57.7 0 88.6 44.7 88.6 108.3h-148.8c2.2 39.1 23.4 68.8 62.1 68.8 27.9 0 46.5-13.4 53.2-39.4h29.4c-8.9 41.3-39.1 64.7-82.6 64.7-58.8 0-93-45.4-93-101.2zm31.6-15.6h115.7c-1.8-38.3-21.6-61.8-56.2-61.8-34.6 0-55 26.8-59.5 61.8z"/>
	</g>
	<path fill-rule="evenodd" class="cls-rect" d="m0 114.6h753.5v266h-753.5z"/>
	<g>
		<path class="s0" d="m0 114.6h187.9v29.4h-154.4v84.1h140.3v28.2h-140.3v93.4h158.9v30.9h-192.4c0 0 0-266 0-266z"/>
		<path class="s0" d="m195.7 285c0-64 36.9-101.2 84.5-101.2 27.1 0 48 13.4 60.3 31.6h0.7v-100.8h30.1v266h-30.1v-23.4h-0.7c-14.5 18.6-32.4 29-59.6 29-52.4 0-85.2-39.4-85.2-101.2zm147.4 0.4c0-44.7-21.6-76-61.4-76-36.5 0-55.1 32.8-55.1 76 0 43.1 18.6 75.5 55.4 75.5 42.8 0 61.1-32 61.1-75.5z"/>
		<path class="s0" d="m392.6 391.4h27.9c2.9 21.2 23 29.4 52.8 29.4 35.4 0 55.1-16 55.1-49.5v-27.1h-0.8c-14.1 18.2-29.4 29.7-56.9 29.7-49.9 0-84.1-39.8-84.1-95.2 0-59.9 37.6-94.9 82.2-94.9 27.9 0 45.8 10.8 58.8 29h0.8v-24.5h30.1v181.9c0 50.6-33.5 74.4-84.4 74.4-51 0-78.2-20.1-81.5-53.2zm138-114.2c0-42.1-17.8-68.1-58.8-68.1-36.1 0-54.3 28.3-54.3 70 0 41.6 19 69.5 54.7 69.5 44.3 0 58.4-30.8 58.4-71.4z"/>
		<path class="s0" d="m573.8 284.6c0-55.8 36.4-101.2 91.1-101.2 57.7 0 88.6 44.7 88.6 108.3h-148.8c2.2 39.1 23.4 68.8 62.1 68.8 27.9 0 46.5-13.4 53.2-39.4h29.4c-8.9 41.3-39.1 64.7-82.6 64.7-58.8 0-93-45.4-93-101.2zm31.6-15.6h115.7c-1.8-38.3-21.6-61.8-56.2-61.8-34.6 0-55 26.8-59.5 61.8z"/>
	</g>
</svg>